<?xml version="1.0" standalone="no"?>
<!DOCTYPE svg PUBLIC "-//W3C//DTD SVG 20010904//EN"
 "http://www.w3.org/TR/2001/REC-SVG-20010904/DTD/svg10.dtd">
<svg version="1.0" xmlns="http://www.w3.org/2000/svg"
 width="906.000000pt" height="906.000000pt" viewBox="0 0 906.000000 906.000000"
 preserveAspectRatio="xMidYMid meet">
<metadata>
Created by potrace 1.11, written by Peter Selinger 2001-2013
</metadata>
<g transform="translate(0.000000,906.000000) scale(0.100000,-0.100000)"
fill="#000000" stroke="none">
<path d="M3085 8128 c1 -18 6 -63 10 -99 l7 -67 -48 -10 c-27 -6 -67 -14 -89
-17 -70 -10 -73 -22 -9 -35 32 -7 65 -13 72 -13 6 0 12 -3 12 -7 0 -4 11 -5
24 -3 28 6 39 -16 30 -57 -3 -14 -7 -47 -10 -75 -3 -27 -7 -56 -10 -63 -10
-32 20 -2 44 43 15 28 30 52 35 53 4 2 7 10 7 18 0 8 5 14 10 14 6 0 10 7 10
15 0 8 2 15 4 15 4 0 110 -50 148 -71 27 -14 40 -11 31 6 -5 8 -35 42 -67 76
l-58 60 40 40 c22 21 39 39 37 39 -2 0 11 15 30 33 35 34 38 54 6 37 -9 -5
-38 -18 -66 -30 -27 -12 -60 -27 -73 -33 -18 -9 -25 -7 -37 9 -8 10 -15 24
-15 30 0 15 -63 123 -72 124 -3 0 -5 -15 -3 -32z"/>
<path d="M6793 7053 c-7 -15 -13 -34 -13 -43 0 -9 -4 -20 -9 -25 -5 -6 -19
-41 -31 -80 -13 -38 -24 -73 -26 -76 -3 -5 -27 1 -142 37 -7 2 -14 4 -17 4 -3
1 -19 6 -37 11 -18 6 -44 12 -58 15 l-25 5 25 -23 c14 -13 59 -50 100 -82 41
-33 79 -62 83 -66 9 -8 -12 -60 -25 -60 -4 0 -8 -7 -8 -15 0 -8 -3 -15 -8 -15
-4 0 -16 -16 -27 -36 -17 -32 -30 -50 -66 -92 -22 -27 1 -23 54 7 30 17 60 38
67 46 7 8 19 15 26 15 8 0 14 5 14 10 0 6 7 10 15 10 8 0 15 4 15 9 0 5 8 12
17 15 17 7 82 -48 83 -70 0 -7 7 -14 15 -18 8 -3 15 -10 15 -15 0 -5 9 -20 20
-33 11 -12 29 -34 40 -48 l21 -25 -5 35 c-5 40 -38 162 -54 201 -12 29 0 49
28 49 9 0 20 3 24 8 4 4 11 7 14 8 4 0 16 4 27 8 11 4 31 12 45 16 14 4 34 12
45 16 11 4 22 8 25 9 32 11 52 24 40 25 -8 1 -24 3 -35 6 -11 2 -68 4 -127 5
-60 1 -109 4 -109 8 -1 3 -3 62 -5 130 -2 68 -7 128 -11 132 -4 4 -14 -4 -20
-18z"/>
<path d="M4507 6464 c-3 -3 -36 -7 -74 -9 -70 -3 -172 -13 -208 -20 -11 -2
-26 -4 -33 -4 -8 -1 -10 -6 -6 -13 6 -10 5 -10 -8 -1 -8 7 -17 10 -21 7 -3 -3
-22 -7 -42 -8 -20 -2 -41 -9 -46 -17 -6 -10 -9 -11 -9 -1 0 9 -5 10 -17 3 -10
-5 -31 -11 -48 -14 -16 -3 -43 -10 -60 -17 -16 -6 -31 -11 -33 -10 -11 4 -80
-25 -75 -33 3 -6 1 -7 -6 -3 -6 4 -20 4 -32 1 -17 -6 -18 -9 -7 -23 12 -15 11
-16 -4 -4 -14 11 -25 10 -67 -4 -27 -10 -47 -22 -45 -26 3 -4 -1 -5 -9 -2 -8
3 -18 1 -22 -5 -3 -6 -13 -11 -22 -11 -8 0 -26 -9 -40 -20 -14 -11 -29 -18
-33 -15 -4 3 -13 -2 -20 -10 -7 -8 -16 -12 -21 -9 -5 3 -9 2 -9 -3 0 -4 -15
-15 -32 -22 -18 -8 -39 -21 -46 -28 -7 -7 -19 -13 -25 -13 -7 0 -25 -11 -41
-25 -16 -14 -35 -25 -43 -25 -7 0 -13 -4 -13 -8 0 -4 -15 -16 -32 -27 -18 -10
-35 -21 -38 -24 -3 -3 -25 -19 -49 -36 -24 -16 -45 -35 -48 -42 -3 -7 -10 -13
-17 -13 -6 0 -24 -14 -39 -31 -15 -17 -27 -29 -27 -26 0 4 -12 -6 -27 -20 -16
-14 -27 -29 -26 -34 2 -5 -1 -8 -6 -6 -13 3 -161 -152 -242 -254 -38 -49 -67
-89 -65 -89 3 0 -6 -12 -19 -26 -14 -15 -25 -33 -25 -40 0 -8 -4 -14 -8 -14
-5 0 -15 -12 -22 -27 -8 -16 -21 -36 -28 -45 -8 -10 -12 -24 -8 -33 3 -9 2
-14 -3 -11 -10 7 -42 -38 -66 -94 -11 -25 -23 -48 -28 -51 -5 -3 -9 -10 -9
-15 -1 -9 -24 -66 -40 -97 -5 -10 -6 -23 -2 -29 5 -7 2 -8 -6 -3 -10 6 -12 3
-8 -13 4 -12 2 -20 -3 -17 -4 3 -11 -7 -15 -22 -4 -15 -11 -34 -17 -40 -5 -7
-6 -13 -2 -13 4 0 3 -6 -3 -12 -10 -13 -27 -77 -24 -90 1 -5 -3 -8 -9 -8 -6 0
-8 -7 -5 -17 4 -9 2 -19 -4 -23 -5 -3 -11 -19 -13 -36 -2 -16 -7 -35 -11 -42
-4 -7 -4 -16 -1 -22 3 -5 2 -10 -3 -10 -5 0 -9 -6 -10 -12 -2 -29 -22 -131
-26 -136 -7 -6 -54 -13 -126 -18 -41 -2 -100 -7 -130 -9 -137 -12 -217 -18
-237 -19 -13 0 -23 -4 -23 -8 0 -5 -9 -4 -19 2 -12 6 -22 6 -25 1 -4 -5 -14
-8 -24 -6 -9 1 -23 -3 -31 -9 -12 -9 -13 -8 -6 3 5 8 4 12 -1 9 -5 -3 -40 -9
-79 -13 -38 -5 -81 -9 -95 -11 -14 -1 -38 -3 -53 -3 -20 -1 -26 -5 -21 -13 6
-10 4 -10 -7 -2 -8 6 -23 10 -34 7 -11 -2 -42 -6 -68 -8 -65 -7 -71 -8 -79
-20 -5 -6 -8 -5 -8 3 0 7 -5 10 -10 7 -6 -4 -25 -8 -43 -11 -18 -2 -52 -6 -77
-9 -44 -5 -55 -7 -130 -20 -19 -3 -51 -8 -70 -11 -19 -2 -46 -7 -60 -10 -14
-4 -42 -8 -63 -10 -20 -2 -41 -5 -46 -8 -5 -3 -26 -8 -47 -11 -22 -3 -46 -9
-54 -12 -8 -3 -24 -7 -35 -8 -30 -5 -66 -13 -110 -25 -22 -6 -51 -13 -65 -16
-46 -9 -60 -15 -55 -24 3 -5 1 -12 -5 -15 -6 -4 -10 -3 -9 2 4 21 -5 21 -63
-1 -82 -31 -178 -75 -178 -82 0 -3 5 -2 12 2 7 4 8 3 4 -5 -4 -6 -11 -9 -15
-6 -17 10 -61 -41 -66 -74 -3 -28 2 -40 33 -71 38 -39 90 -70 116 -70 8 0 16
-3 18 -8 3 -7 128 -52 155 -56 7 -1 16 -5 19 -9 4 -4 19 -7 34 -7 15 0 30 -3
34 -7 4 -4 19 -9 33 -11 15 -2 51 -10 81 -17 31 -8 58 -13 60 -10 3 3 11 0 19
-6 10 -9 13 -8 13 2 0 11 2 11 9 0 5 -8 18 -15 28 -16 10 -1 38 -6 63 -10 25
-4 52 -9 60 -10 8 -1 29 -5 45 -8 17 -4 50 -10 75 -13 25 -4 59 -8 75 -11 17
-2 44 -6 60 -7 17 -2 38 -7 48 -11 9 -4 23 -5 31 -2 8 3 17 3 20 -1 4 -3 21
-6 39 -7 17 0 37 -3 42 -6 6 -3 27 -5 47 -4 21 0 38 -2 38 -6 0 -3 10 -5 23
-4 12 1 30 -2 41 -7 14 -8 17 -7 11 3 -6 8 -4 10 6 3 8 -4 27 -9 44 -10 76 -6
148 -15 154 -18 4 -3 13 -1 21 4 8 5 19 5 25 0 6 -5 40 -11 75 -14 36 -3 77
-7 92 -9 16 -3 28 0 28 7 0 6 5 4 10 -4 5 -8 10 -12 10 -9 0 4 15 3 34 -1 22
-5 39 -3 47 4 8 8 10 8 6 0 -4 -8 8 -11 38 -9 24 1 42 -1 40 -4 -1 -3 22 -7
53 -7 99 -3 205 -13 214 -22 5 -5 10 -19 13 -31 2 -12 7 -31 10 -41 3 -10 8
-28 10 -39 19 -85 43 -154 57 -162 10 -7 10 -9 -1 -9 -9 0 -10 -4 -4 -12 5 -7
15 -32 23 -55 7 -24 17 -43 22 -43 5 0 7 -4 4 -9 -3 -4 3 -26 13 -47 10 -22
27 -57 37 -79 10 -22 23 -43 28 -47 6 -4 8 -8 4 -8 -4 0 2 -18 13 -40 12 -22
26 -37 32 -33 5 3 7 1 3 -5 -7 -12 38 -101 62 -119 9 -7 12 -13 8 -13 -6 0 24
-46 90 -137 9 -13 21 -20 27 -16 5 3 7 1 3 -5 -3 -6 1 -17 9 -25 8 -9 15 -19
15 -24 0 -5 9 -15 20 -23 11 -8 20 -18 20 -23 0 -4 11 -19 24 -32 13 -13 30
-33 38 -43 7 -10 24 -26 38 -35 13 -9 21 -17 16 -17 -9 0 124 -130 134 -130 3
-1 23 -19 45 -40 22 -22 44 -40 49 -40 5 0 16 -8 25 -18 25 -27 91 -74 91 -65
0 4 5 0 11 -10 6 -9 14 -15 19 -12 4 3 11 -2 14 -11 4 -10 12 -14 23 -10 10 4
14 4 10 0 -10 -10 44 -44 57 -37 6 3 8 2 3 -2 -7 -9 151 -102 181 -107 9 -2
19 -6 22 -9 10 -12 114 -59 131 -59 10 0 21 -5 24 -10 4 -6 11 -8 16 -5 5 4 9
1 9 -5 0 -6 4 -9 9 -5 5 3 12 1 16 -5 3 -5 12 -10 20 -10 8 0 26 -5 42 -12 15
-6 34 -10 41 -9 6 1 12 -4 12 -10 0 -7 3 -10 6 -7 3 4 20 2 37 -3 35 -11 58
-17 97 -24 14 -3 40 -9 58 -14 17 -5 32 -8 32 -6 0 3 12 0 26 -5 14 -6 53 -12
87 -15 34 -3 85 -7 112 -10 28 -3 91 -7 140 -9 72 -3 94 -1 110 13 18 15 19
15 7 -1 -12 -15 -7 -16 65 -13 107 6 260 23 273 30 3 2 30 6 60 10 30 4 61 12
68 17 6 6 12 8 12 5 0 -3 20 0 44 7 25 8 47 11 50 8 4 -3 6 -1 6 4 0 5 8 10
18 11 33 2 67 13 70 23 2 6 8 7 14 4 5 -4 20 -2 31 4 12 6 46 18 75 27 32 10
50 21 46 27 -4 7 -2 8 4 4 7 -4 47 10 89 30 43 21 80 38 83 39 18 2 128 70
124 77 -3 4 1 5 8 3 8 -3 23 3 35 14 11 11 24 17 27 14 3 -4 6 -1 6 5 0 7 6
12 13 12 7 0 23 10 37 23 14 13 30 25 35 28 6 2 9 8 7 12 -1 5 1 6 6 3 13 -8
53 24 46 36 -5 7 -2 8 5 3 7 -4 20 1 30 11 9 11 34 30 54 44 21 14 35 31 32
38 -3 8 0 10 6 6 6 -3 26 10 45 30 19 20 39 36 45 36 5 0 7 5 4 10 -3 6 -3 10
2 10 18 0 65 49 57 61 -4 7 -3 9 3 6 10 -6 56 38 85 82 10 14 18 22 18 17 0
-5 14 11 32 35 17 24 35 46 40 47 4 2 6 8 2 13 -3 5 -1 9 4 9 11 0 132 173
132 189 0 6 5 11 11 11 5 0 7 4 4 10 -3 5 -3 10 2 10 4 0 22 26 38 58 17 31
33 59 38 60 4 2 7 8 7 13 0 17 35 89 43 89 4 0 6 4 2 9 -3 5 -1 12 5 16 5 3
10 15 10 26 0 10 5 19 10 19 6 0 10 7 10 15 0 8 11 40 25 70 13 31 24 59 23
63 -1 4 2 14 5 22 27 62 43 130 33 140 -8 8 -7 11 4 8 8 -2 15 2 15 7 1 6 5
21 8 35 6 22 14 62 16 82 2 12 43 21 116 24 38 2 77 4 85 5 8 0 22 3 30 6 8 3
39 5 68 5 37 0 50 3 45 11 -5 9 -3 9 8 1 8 -6 23 -10 34 -7 11 2 36 5 55 6 19
1 38 6 42 12 5 6 8 5 8 -3 0 -7 4 -11 8 -8 4 3 35 7 68 11 32 3 82 8 109 11
28 3 57 6 65 6 8 1 21 5 28 11 8 6 12 6 12 -2 0 -7 4 -10 9 -7 5 3 30 8 57 11
27 4 63 8 79 10 17 2 57 6 90 10 86 8 107 14 98 28 -5 9 -4 9 8 0 9 -7 24 -11
35 -9 83 16 138 24 167 25 12 1 16 6 11 14 -5 9 -4 9 6 0 8 -7 22 -8 42 -2 17
4 33 8 37 7 22 -2 51 3 48 10 -3 4 13 8 35 9 23 0 45 7 49 15 7 10 9 10 9 0 0
-7 4 -11 9 -7 6 3 29 8 53 11 24 4 51 10 61 15 9 6 17 7 17 5 0 -3 11 -1 25 4
14 5 38 12 53 15 37 8 57 13 60 15 1 2 7 3 12 4 6 0 15 8 20 16 6 9 10 10 10
3 0 -8 28 -2 82 18 44 16 84 29 87 29 3 0 -1 5 -9 11 -12 8 -11 9 6 5 13 -4
29 2 44 16 14 13 26 22 27 21 8 -8 23 -2 18 7 -3 6 0 10 8 10 14 0 37 48 37
74 0 15 -55 76 -69 76 -6 0 -11 4 -11 10 0 5 -11 12 -25 16 -14 3 -25 11 -25
17 0 6 -3 8 -6 4 -4 -3 -20 1 -36 9 -43 22 -210 74 -220 68 -4 -3 -8 0 -8 6 0
6 -4 8 -10 5 -5 -3 -16 -3 -22 2 -7 4 -20 8 -28 9 -8 0 -23 4 -33 8 -9 5 -26
6 -37 3 -11 -3 -18 -1 -15 3 3 5 -3 9 -12 9 -10 0 -36 4 -57 10 -22 5 -43 8
-47 5 -4 -2 -10 0 -14 6 -4 6 -11 8 -16 4 -5 -3 -15 -1 -22 4 -20 17 -23 17
-42 2 -11 -8 -16 -10 -12 -4 10 16 -18 25 -33 11 -10 -9 -11 -9 -6 1 5 8 0 12
-16 13 -31 1 -67 6 -103 14 -16 4 -43 8 -60 10 -45 5 -127 16 -155 21 -14 2
-45 7 -70 9 -25 3 -61 8 -80 10 -85 12 -216 26 -285 31 -22 1 -60 5 -85 9 -82
11 -100 11 -100 1 0 -7 -3 -7 -8 0 -4 6 -45 14 -92 18 -47 3 -100 8 -117 11
-22 3 -33 0 -33 -8 0 -8 -2 -9 -8 -1 -10 16 -88 24 -101 11 -8 -8 -11 -8 -11
1 0 7 -6 12 -14 12 -8 0 -16 17 -21 43 -14 77 -15 82 -22 97 -3 8 -5 22 -4 32
1 9 -3 19 -8 22 -6 4 -8 13 -4 21 3 8 0 15 -6 15 -6 0 -8 7 -5 15 4 8 1 15 -5
15 -6 0 -8 7 -5 15 4 8 1 21 -5 29 -6 7 -8 16 -4 19 3 4 1 7 -6 7 -7 0 -10 4
-7 9 4 5 1 22 -5 38 -7 15 -14 37 -16 48 -2 10 -7 22 -11 25 -4 3 -8 12 -10
20 -7 40 -105 249 -152 325 -32 53 -56 95 -68 120 -6 12 -17 27 -26 34 -9 7
-16 18 -16 23 0 10 -33 52 -80 106 -12 12 -17 22 -13 22 4 1 -3 10 -16 20 -13
11 -20 20 -16 20 5 0 -6 14 -24 30 -17 17 -31 33 -31 36 0 12 -211 212 -292
277 -15 12 -39 32 -52 45 -14 12 -29 22 -33 22 -4 0 -24 14 -43 30 -19 16 -41
30 -47 30 -7 0 -13 5 -13 11 0 5 -4 8 -9 5 -5 -3 -11 1 -15 9 -3 8 -12 15 -20
15 -8 0 -16 4 -18 8 -5 14 -100 62 -109 56 -5 -3 -9 0 -9 6 0 11 -200 110
-223 110 -7 0 -17 4 -22 9 -11 10 -119 48 -150 53 -11 2 -22 6 -25 10 -3 4
-21 9 -40 10 -19 2 -37 6 -40 10 -3 4 -17 9 -30 11 -14 3 -45 10 -70 17 -46
12 -88 19 -150 25 -19 2 -35 4 -35 5 0 2 -35 6 -120 15 -91 9 -221 9 -236 -1
-8 -4 -9 -3 -5 4 7 12 -6 17 -17 6z m384 -121 c13 -16 12 -17 -3 -4 -10 7 -18
15 -18 17 0 8 8 3 21 -13z m-246 -411 c-3 -3 -11 0 -18 7 -9 10 -8 11 6 5 10
-3 15 -9 12 -12z m969 10 c2 -4 -4 -8 -14 -8 -10 0 -16 4 -14 8 3 4 9 8 14 8
5 0 11 -4 14 -8z m-243 -239 c13 -16 12 -17 -3 -4 -10 7 -18 15 -18 17 0 8 8
3 21 -13z m-241 -67 c0 -2 -8 -10 -17 -17 -16 -13 -17 -12 -4 4 13 16 21 21
21 13z m1124 -14 c2 -4 -4 -8 -14 -8 -10 0 -16 4 -14 8 3 4 9 8 14 8 5 0 11
-4 14 -8z m-1684 -66 c0 -2 -8 -10 -17 -17 -16 -13 -17 -12 -4 4 13 16 21 21
21 13z m-1800 -16 c0 -5 -2 -10 -4 -10 -3 0 -8 5 -11 10 -3 6 -1 10 4 10 6 0
11 -4 11 -10z m605 -80 c3 -6 -1 -7 -9 -4 -18 7 -21 14 -7 14 6 0 13 -4 16
-10z m2475 -64 c0 -2 -8 -10 -17 -17 -16 -13 -17 -12 -4 4 13 16 21 21 21 13z
m-1430 -10 c0 -2 -8 -10 -17 -17 -16 -13 -17 -12 -4 4 13 16 21 21 21 13z
m-814 -161 c-1 -8 -5 -17 -8 -21 -5 -4 -4 16 1 34 3 9 9 -1 7 -13z m-1079 -50
c0 -8 -4 -12 -9 -9 -5 3 -6 10 -3 15 9 13 12 11 12 -6z m1644 -32 c13 -16 12
-17 -3 -4 -10 7 -18 15 -18 17 0 8 8 3 21 -13z m480 0 c13 -16 12 -17 -3 -4
-10 7 -18 15 -18 17 0 8 8 3 21 -13z m-803 -88 c-3 -3 -9 2 -12 12 -6 14 -5
15 5 6 7 -7 10 -15 7 -18z m2407 -235 c3 -6 -1 -7 -9 -4 -18 7 -21 14 -7 14 6
0 13 -4 16 -10z m-884 -77 c13 -16 12 -17 -3 -4 -10 7 -18 15 -18 17 0 8 8 3
21 -13z m-2730 -10 c13 -16 12 -17 -3 -4 -10 7 -18 15 -18 17 0 8 8 3 21 -13z
m899 -67 c0 -2 -8 -10 -17 -17 -16 -13 -17 -12 -4 4 13 16 21 21 21 13z m3196
-8 c3 -4 -1 -5 -10 -4 -8 1 -18 5 -22 8 -3 4 1 5 10 4 8 -1 18 -5 22 -8z
m-732 -88 c-6 -6 -10 -3 -10 10 0 13 4 16 10 10 7 -7 7 -13 0 -20z m-4637
-235 c0 -8 -4 -12 -9 -9 -5 3 -6 10 -3 15 9 13 12 11 12 -6z m7357 -241 c3 -8
2 -12 -4 -9 -6 3 -10 10 -10 16 0 14 7 11 14 -7z m196 10 c0 -8 -19 -13 -24
-6 -3 5 1 9 9 9 8 0 15 -2 15 -3z m-8105 -84 c-3 -5 -12 -10 -18 -10 -7 0 -6
4 3 10 19 12 23 12 15 0z m475 -4 c-7 -7 -13 -7 -20 0 -6 6 -3 10 10 10 13 0
16 -4 10 -10z m490 10 c0 -2 -8 -10 -17 -17 -16 -13 -17 -12 -4 4 13 16 21 21
21 13z m7187 -81 c0 -8 -4 -12 -9 -9 -5 3 -6 10 -3 15 9 13 12 11 12 -6z
m-6867 -79 c0 -2 -8 -10 -17 -17 -16 -13 -17 -12 -4 4 13 16 21 21 21 13z
m-805 -86 c-3 -5 -12 -10 -18 -10 -7 0 -6 4 3 10 19 12 23 12 15 0z m873 -165
c-3 -3 -9 2 -12 12 -6 14 -5 15 5 6 7 -7 10 -15 7 -18z m4962 21 c0 -2 -8 -10
-17 -17 -16 -13 -17 -12 -4 4 13 16 21 21 21 13z m-3919 -333 c13 -16 12 -17
-3 -4 -17 13 -22 21 -14 21 2 0 10 -8 17 -17z m3599 13 c0 -2 -8 -10 -17 -17
-16 -13 -17 -12 -4 4 13 16 21 21 21 13z m-3366 -22 c3 -8 2 -12 -4 -9 -6 3
-10 10 -10 16 0 14 7 11 14 -7z m3197 -1 c13 -16 12 -17 -3 -4 -10 7 -18 15
-18 17 0 8 8 3 21 -13z m-3590 -70 c13 -16 12 -17 -3 -4 -10 7 -18 15 -18 17
0 8 8 3 21 -13z m154 -242 c3 -5 2 -12 -3 -15 -5 -3 -9 1 -9 9 0 17 3 19 12 6z
m1125 -65 c0 -2 -8 -10 -17 -17 -16 -13 -17 -12 -4 4 13 16 21 21 21 13z
m1280 0 c0 -2 -8 -10 -17 -17 -16 -13 -17 -12 -4 4 13 16 21 21 21 13z m-2550
-170 c0 -2 -8 -10 -17 -17 -16 -13 -17 -12 -4 4 13 16 21 21 21 13z m711 -243
c13 -16 12 -17 -3 -4 -17 13 -22 21 -14 21 2 0 10 -8 17 -17z m640 -320 c13
-16 12 -17 -3 -4 -10 7 -18 15 -18 17 0 8 8 3 21 -13z m799 13 c0 -2 -8 -10
-17 -17 -16 -13 -17 -12 -4 4 13 16 21 21 21 13z m-409 -103 c13 -16 12 -17
-3 -4 -17 13 -22 21 -14 21 2 0 10 -8 17 -17z m-80 -246 c-10 -9 -11 -8 -5 6
3 10 9 15 12 12 3 -3 0 -11 -7 -18z m763 15 c3 -5 -1 -9 -9 -9 -8 0 -12 4 -9
9 3 4 7 8 9 8 2 0 6 -4 9 -8z"/>
<path d="M944 6193 c-5 -27 -9 -50 -9 -53 -1 -3 -5 -25 -9 -49 l-8 -43 -57 6
c-121 13 -139 13 -134 -1 3 -7 11 -13 19 -13 8 0 14 -4 14 -10 0 -5 9 -10 19
-10 11 0 21 -4 23 -9 2 -5 21 -17 42 -27 42 -20 53 -45 30 -65 -8 -6 -14 -20
-14 -30 0 -11 -5 -19 -12 -19 -6 0 -8 -3 -5 -7 4 -3 1 -16 -6 -27 -15 -22 -28
-66 -21 -66 3 0 36 29 74 65 38 36 73 65 78 65 5 0 38 -27 73 -60 35 -33 67
-60 71 -60 12 0 4 35 -15 63 -9 14 -18 32 -19 39 -2 7 -5 15 -8 18 -3 3 -11
16 -19 29 -13 23 -11 27 15 48 16 13 32 23 36 23 15 0 108 62 108 71 0 6 -4 8
-9 5 -8 -5 -56 -12 -154 -21 -45 -4 -48 -3 -47 18 1 12 1 24 0 27 -2 6 -6 24
-13 60 -19 94 -32 104 -43 33z"/>
<path d="M8245 5644 c5 -22 9 -48 10 -59 1 -11 5 -30 9 -42 4 -12 9 -31 11
-43 2 -12 7 -30 10 -40 5 -15 -4 -21 -52 -34 -122 -34 -200 -64 -167 -67 46
-3 108 -9 154 -14 30 -4 60 -7 66 -7 11 -1 13 -133 3 -153 -3 -6 -2 -28 1 -49
4 -32 7 -37 17 -25 6 8 12 17 12 22 1 4 10 26 20 50 10 23 27 61 37 85 17 40
20 42 49 36 16 -3 47 -15 67 -25 21 -11 46 -19 56 -19 10 0 22 -3 26 -7 10
-10 46 -14 46 -5 0 4 -14 18 -30 32 -17 14 -55 48 -85 76 -53 49 -54 51 -37
70 10 10 29 35 42 54 14 19 32 42 40 51 25 28 50 62 46 66 -4 4 -87 -39 -104
-54 -7 -7 -18 -13 -24 -13 -5 0 -21 -9 -35 -20 -14 -11 -29 -17 -34 -14 -5 3
-9 0 -9 -7 0 -8 -4 -8 -15 1 -8 7 -15 17 -15 22 0 6 -13 27 -30 48 -16 21 -30
43 -30 49 0 6 -4 11 -10 11 -5 0 -10 5 -10 10 0 6 -10 20 -21 31 l-22 22 8
-39z"/>
<path d="M7645 2786 c3 -43 8 -83 11 -87 10 -16 -7 -51 -22 -45 -8 3 -14 2
-14 -2 0 -5 -10 -9 -22 -10 -27 -1 -64 -7 -108 -17 -36 -8 -28 -27 12 -30 13
-1 53 -8 90 -16 57 -11 67 -16 62 -31 -6 -20 -14 -81 -18 -145 -3 -44 7 -57
18 -25 3 9 17 35 31 57 13 22 31 54 39 71 l15 31 91 -45 c50 -24 93 -42 95
-40 5 5 -26 45 -82 105 -24 25 -43 47 -43 49 0 3 12 17 28 33 77 78 105 111
100 116 -3 3 -22 -2 -44 -12 -21 -9 -41 -17 -44 -18 -3 0 -19 -9 -37 -18 -53
-28 -65 -22 -97 46 -17 34 -38 73 -48 87 -19 24 -19 24 -13 -54z"/>
<path d="M1440 2545 c-3 -21 -10 -172 -10 -227 0 -32 -3 -59 -7 -59 -5 -1 -35
-3 -68 -5 -220 -10 -263 -17 -196 -30 17 -4 34 -11 37 -15 3 -5 14 -9 25 -9
10 0 19 -5 19 -11 0 -5 5 -7 10 -4 6 4 16 3 23 -2 7 -5 38 -18 69 -28 32 -10
60 -25 62 -32 3 -7 1 -13 -5 -13 -6 0 -8 -4 -5 -8 3 -5 -2 -28 -10 -52 -16
-46 -42 -139 -50 -177 -3 -17 -1 -21 10 -17 9 3 18 13 21 22 3 10 21 34 40 54
19 20 35 39 35 42 0 6 23 35 46 60 6 6 15 19 20 28 8 14 25 6 129 -64 79 -53
121 -76 124 -67 2 7 -1 15 -7 17 -7 2 -12 9 -12 15 0 7 -14 28 -30 47 -16 19
-30 41 -30 48 0 6 -4 12 -10 12 -5 0 -10 7 -10 15 0 8 -3 15 -7 15 -5 0 -16
14 -26 32 -18 31 -18 32 7 52 38 32 88 72 121 98 17 12 32 26 33 30 2 5 10 8
17 8 7 0 15 7 19 15 6 18 3 18 -48 4 -21 -6 -48 -13 -60 -15 -27 -7 -38 -10
-56 -17 -41 -16 -103 -28 -111 -20 -11 11 -79 203 -72 203 4 0 -1 8 -9 18 -9
9 -18 24 -21 32 -3 8 -6 11 -7 5z"/>
<path d="M5185 1340 c-5 -19 -8 -39 -7 -44 2 -4 -2 -14 -8 -20 -5 -7 -7 -15
-4 -18 3 -3 0 -25 -6 -48 -11 -40 -13 -42 -43 -36 -18 3 -63 8 -102 12 -70 5
-70 5 -50 -14 11 -11 22 -19 25 -19 11 1 90 -38 90 -45 0 -5 7 -8 15 -8 9 0
18 -7 21 -15 6 -14 0 -30 -48 -133 -11 -24 -17 -46 -14 -49 6 -6 71 50 121
105 l21 23 40 -31 c21 -17 51 -45 67 -61 15 -17 27 -27 27 -23 0 3 7 1 15 -6
17 -14 19 -8 6 18 -47 90 -72 152 -66 162 4 6 17 16 28 21 34 15 115 63 128
76 13 13 -3 12 -101 -3 -63 -10 -91 -11 -95 -4 -5 8 -15 56 -21 98 -3 19 -11
48 -18 65 l-13 32 -8 -35z"/>
</g>
</svg>
