<?xml version="1.0" encoding="UTF-8" standalone="no"?>
<svg
   xmlns:dc="http://purl.org/dc/elements/1.1/"
   xmlns:cc="http://creativecommons.org/ns#"
   xmlns:rdf="http://www.w3.org/1999/02/22-rdf-syntax-ns#"
   xmlns:svg="http://www.w3.org/2000/svg"
   xmlns="http://www.w3.org/2000/svg"
   id="svg8"
   version="1.1"
   viewBox="0 0 127.75595 102.70931"
   height="102.70931mm"
   width="127.75595mm">
  <defs
     id="defs2" />
  <metadata
     id="metadata5">
    <rdf:RDF>
      <cc:Work
         rdf:about="">
        <dc:format>image/svg+xml</dc:format>
        <dc:type
           rdf:resource="http://purl.org/dc/dcmitype/StillImage" />
        <dc:title></dc:title>
      </cc:Work>
    </rdf:RDF>
  </metadata>
  <g
     transform="translate(-40.065475,-75.673628)"
     id="layer1">
    <ellipse
       ry="7.5595236"
       rx="63.877975"
       cy="134.47025"
       cx="103.94345"
       id="path10"
       style="opacity:0.5;fill:#ff5555;fill-opacity:1;stroke-width:0.26458332" />
    <ellipse
       ry="34.017857"
       rx="33.261906"
       cy="133.76801"
       cx="104.63454"
       id="path75"
       style="opacity:0.5;fill:#0288d1;fill-opacity:1;stroke-width:0.26458332" />
    <path
       d="m 55.940476,109.52381 -2.253109,-2.05252 -2.189755,2.11998 1.255812,-2.7771 -2.692891,-1.42747 3.029244,0.33618 0.525458,-3.00221 0.616363,2.98487 3.017641,-0.42799 -2.648311,1.50857 z"
       id="path81"
       style="opacity:1;fill:#ffcc00;fill-opacity:1;stroke-width:0.26458332" />
    <path
       d="m 65.011905,163.95238 -3.564857,-2.4229 -2.641661,3.40592 1.202718,-4.1391 -4.055541,-1.45988 4.308177,-0.1352 0.135199,-4.30818 1.459882,4.05554 4.139099,-1.20271 -3.40592,2.64166 z"
       id="path83"
       style="opacity:1;fill:#ffcc00;fill-opacity:1;stroke-width:0.26458332" />
    <path
       d="m 151.94642,156.39287 -2.73769,-1.33955 -1.50857,2.64832 0.42799,-3.01765 -2.98487,-0.61636 3.00221,-0.52546 -0.33618,-3.02924 1.42747,2.69289 2.7771,-1.25581 -2.11998,2.18975 z"
       id="path85"
       style="opacity:1;fill:#ffcc00;fill-opacity:1;stroke-width:0.26458332" />
    <path
       d="m 161.77381,117.08334 -3.33647,-1.22535 -1.43214,3.25307 0.13435,-3.55183 -3.53641,-0.35679 3.41951,-0.9698 -0.75348,-3.47358 1.97901,2.95246 3.07074,-1.79 -2.1964,2.79452 z"
       id="path87"
       style="opacity:1;fill:#ffcc00;fill-opacity:1;stroke-width:0.26458332" />
    <path
       d="m 89.294088,85.829884 -2.73769,-1.339547 -1.508571,2.64831 0.427993,-3.017641 -2.984867,-0.616363 3.002204,-0.525458 -0.336178,-3.029244 1.427471,2.692891 2.777098,-1.255812 -2.119978,2.189755 z"
       id="path89"
       style="opacity:1;fill:#ffcc00;fill-opacity:1;stroke-width:0.26458332" />
    <path
       d="m 137.58333,100.45238 -2.4815,-3.250073 -3.39927,2.272831 2.32418,-3.364374 -3.21203,-2.530557 3.91792,1.170774 1.41414,-3.8368 0.0972,4.087952 4.086,0.159283 -3.85782,1.35572 z"
       id="path93"
       style="opacity:1;fill:#ffcc00;fill-opacity:1;stroke-width:0.26458332" />
    <path
       d="m 115.66072,178.31548 -2.25311,-2.05252 -2.18976,2.11998 1.25582,-2.7771 -2.6929,-1.42747 3.02925,0.33618 0.52546,-3.0022 0.61636,2.98486 3.01764,-0.42799 -2.64831,1.50857 z"
       id="path95"
       style="opacity:1;fill:#ffcc00;fill-opacity:1;stroke-width:0.26458332" />
  </g>
</svg>
